<?xml version="1.0" encoding="UTF-8" standalone="no"?>
<!-- Created with Inkscape (http://www.inkscape.org/) -->

<svg
   xmlns:dc="http://purl.org/dc/elements/1.1/"
   xmlns:cc="http://creativecommons.org/ns#"
   xmlns:rdf="http://www.w3.org/1999/02/22-rdf-syntax-ns#"
   xmlns:svg="http://www.w3.org/2000/svg"
   xmlns="http://www.w3.org/2000/svg"
   xmlns:sodipodi="http://sodipodi.sourceforge.net/DTD/sodipodi-0.dtd"
   xmlns:inkscape="http://www.inkscape.org/namespaces/inkscape"
   width="32"
   height="32"
   id="svg2"
   version="1.1"
   inkscape:version="0.48.2 r9819"
   sodipodi:docname="Y!.svg"
   inkscape:export-filename="/Users/jacob/Dropbox/Unit of Creativity/Clients/yambaps.com/images/favicon.png"
   inkscape:export-xdpi="90"
   inkscape:export-ydpi="90">
  <defs
     id="defs4" />
  <sodipodi:namedview
     id="base"
     pagecolor="#ffffff"
     bordercolor="#666666"
     borderopacity="1.0"
     inkscape:pageopacity="0.0"
     inkscape:pageshadow="2"
     inkscape:zoom="11.2"
     inkscape:cx="12.094852"
     inkscape:cy="10.876435"
     inkscape:document-units="px"
     inkscape:current-layer="layer1"
     showgrid="false"
     showguides="true"
     inkscape:guide-bbox="true"
     inkscape:window-width="1680"
     inkscape:window-height="914"
     inkscape:window-x="0"
     inkscape:window-y="0"
     inkscape:window-maximized="0" />
  <metadata
     id="metadata7">
    <rdf:RDF>
      <cc:Work
         rdf:about="">
        <dc:format>image/svg+xml</dc:format>
        <dc:type
           rdf:resource="http://purl.org/dc/dcmitype/StillImage" />
        <dc:title></dc:title>
      </cc:Work>
    </rdf:RDF>
  </metadata>
  <g
     inkscape:label="Layer 1"
     inkscape:groupmode="layer"
     id="layer1"
     transform="translate(0,-1020.3622)">
    <path
       inkscape:connector-curvature="0"
       id="path2997"
       style="font-size:20.62417411999999928px;font-style:normal;font-variant:normal;font-weight:normal;font-stretch:normal;text-align:start;line-height:139.99999761999998782%;letter-spacing:0px;word-spacing:0px;writing-mode:lr-tb;text-anchor:start;fill:#d40000;fill-opacity:1;stroke:none;font-family:League Script Thin;-inkscape-font-specification:'League Script Thin,'"
       d="m 30.883354,1026.354 c 0,-0.082 -0.103121,-0.1649 -0.206242,-0.1443 -0.04125,0 -4.578571,0.66 -8.99214,6.9297 -0.680597,0.9693 -1.753056,2.5162 -3.155499,4.5992 -0.742469,1.0106 -1.505565,1.8768 -2.289283,2.5574 -1.134328,0.9693 -2.433654,1.5674 -3.815472,1.5674 -0.866215,0 -1.856177,-0.2062 -2.5986461,-0.7218 -0.3712348,-0.2475 -0.680598,-0.5775 -0.9074637,-0.99 -0.2268657,-0.4331 -0.3506109,-0.9487 -0.3506109,-1.5674 0,-0.99 0.3299876,-2.2893 1.2168262,-3.9186 2.0211675,-3.8155 4.3310785,-5.8779 6.2903735,-7.4453 1.196201,0.062 3.01113,0.2887 4.042338,-0.3506 1.175577,-0.6806 0.659972,-2.3306 -0.763095,-2.145 -1.237449,0.165 -2.433653,1.2994 -3.382364,2.1037 -1.423067,-0.1444 -2.557399,-0.4744 -3.609231,-0.8662 -1.34057,-0.5156 -2.4955261,-1.1343 -3.8360961,-1.485 -1.6499323,-0.4124 -3.5267352,-0.6393 -4.9910501,0.062 -0.8662145,0.4538 -1.3199472,1.1962 -1.3199472,2.1037 0,1.0931 0.8662163,1.7943 1.8149274,2.0624 0.4537313,0.1237 0.8249669,0.1444 0.8249669,0.165 0.1031208,0 0.1856176,-0.082 0.2062418,-0.1856 0,-0.1031 -0.082497,-0.1856 -0.1856176,-0.1856 -1.0930801,-0.2063 -2.2892833,-0.6188 -2.2892833,-1.8562 0,-0.99 0.7012228,-1.6706 1.5674372,-1.9387 1.3818183,-0.4537 2.9905065,-0.2062 4.269204,0.1238 1.2993217,0.3506 2.454278,0.9487 3.815472,1.4849 0.969335,0.3506 2.041795,0.6806 3.320492,0.8456 -1.918046,1.5674 -4.166085,3.6505 -6.1047553,7.3216 -0.8868386,1.6705 -1.2580746,3.0111 -1.2580746,4.1042 0,0.6806 0.1443695,1.2581 0.3918593,1.7324 0.391859,0.7219 1.0105852,1.1962 1.6911826,1.5056 0.680597,0.2887 1.443693,0.4125 2.144914,0.4125 1.608684,0 2.969882,-0.7219 4.062962,-1.65 0.123745,-0.1031 0.24749,-0.2268 0.371235,-0.3506 -0.866214,1.3612 -1.753056,2.7843 -2.743015,4.3517 -1.319946,2.0624 -3.423615,3.3824 -5.7541445,3.3824 -1.1962009,0 -2.371781,-0.2888 -3.3411162,-0.8662 -0.7012212,-0.4331 -1.1755782,-0.99 -1.4643163,-1.5262 0.7424695,-0.8044 1.5261888,-1.9181 1.5261888,-3.0112 0.020624,-0.763 -0.3506116,-1.423 -1.0312087,-1.423 -0.4743555,0 -0.8249671,0.3506 -1.0312087,0.6806 -0.3093623,0.5362 -0.3918593,1.1549 -0.3918593,1.7324 0,0.7012 0.1856179,1.3612 0.474356,1.9593 -0.1031207,0.1031 -0.1856177,0.1856 -0.2887384,0.2887 -0.5568522,0.5363 -1.1962027,0.9281 -1.7530548,1.0313 -0.10312079,0.021 -0.16499339,0.1237 -0.14436924,0.2268 0,0.082 0.10312094,0.165 0.20624174,0.1444 0.4537314,-0.082 0.9074641,-0.3094 1.3199471,-0.6187 0.2887382,-0.2063 0.5774772,-0.4538 0.8455912,-0.7219 0.4124831,0.66 0.9280884,1.1756 1.546813,1.5675 1.072456,0.6393 2.3511571,0.9074 3.5267338,0.9074 2.6398915,0 4.7229375,-1.5055 6.0635075,-3.568 1.546811,-2.5161 3.093627,-4.8673 4.413573,-6.8266 0.206242,-0.2887 0.763095,-1.1343 0.928088,-1.4024 0.928087,-1.3612 1.711807,-2.4543 2.227411,-3.1968 2.18616,-3.073 4.372326,-4.7641 6.022258,-5.6922 0.824967,-0.4744 1.505566,-0.7425 1.979921,-0.8869 0.24749,-0.082 0.515605,-0.1237 0.721846,-0.1856 0.123745,-0.041 0.185618,-0.1444 0.164994,-0.2269 m -11.487665,-1.258 c 1.010583,-0.1031 1.361194,1.0106 0.515604,1.4643 -0.886839,0.5156 -2.495526,0.3918 -3.402989,0.3094 0.928087,-0.7013 1.814929,-1.6294 2.887385,-1.7737 m -16.3962188,18.4792 c 0.020624,-0.5774 0.061873,-1.1549 0.350611,-1.5674 0.1649932,-0.2681 0.4124838,-0.495 0.7012219,-0.495 0.5156039,0 0.6599736,0.6806 0.6599736,1.0518 0,0.99 -0.7218467,1.98 -1.3199471,2.6606 -0.2474899,-0.495 -0.3918594,-1.0931 -0.3918594,-1.65" />
    <path
       sodipodi:type="inkscape:offset"
       inkscape:radius="0"
       inkscape:original="M 29.96875 1030.4688 C 29.88625 1030.4068 29.749373 1030.438 29.6875 1030.5 C 29.66688 1030.521 28.1793 1032.3708 26.34375 1035.0312 C 24.652569 1037.4649 22.329317 1041.1289 20.90625 1044.5938 C 20.865 1044.6969 20.896879 1044.8025 21 1044.8438 C 21.02062 1044.8438 21.04188 1044.8437 21.0625 1044.8438 C 21.145 1044.8438 21.208752 1044.7805 21.25 1044.7188 C 22.652443 1041.2744 24.985693 1037.6837 26.65625 1035.25 C 28.471175 1032.6101 29.948126 1030.7706 29.96875 1030.75 C 30.03062 1030.668 30.05124 1030.5305 29.96875 1030.4688 z "
       style="font-size:20.62417411999999928px;font-style:normal;font-variant:normal;font-weight:normal;font-stretch:normal;text-align:start;line-height:139.99999761999998782%;letter-spacing:0px;word-spacing:0px;writing-mode:lr-tb;text-anchor:start;fill:#d40000;fill-opacity:1;stroke:none;font-family:League Script Thin;-inkscape-font-specification:'League Script Thin,'"
       id="path3009"
       d="m 29.96875,1030.4688 c -0.0825,-0.062 -0.219377,-0.031 -0.28125,0.031 -0.02062,0.021 -1.5082,1.8708 -3.34375,4.5312 -1.691181,2.4337 -4.014433,6.0977 -5.4375,9.5626 -0.04125,0.1031 -0.0094,0.2087 0.09375,0.25 0.02062,0 0.04188,-1e-4 0.0625,0 0.0825,0 0.146252,-0.063 0.1875,-0.125 1.402443,-3.4444 3.735693,-7.0351 5.40625,-9.4688 1.814925,-2.6399 3.291876,-4.4794 3.3125,-4.5 0.06187,-0.082 0.08249,-0.2195 0,-0.2812 z"
       transform="translate(1.3392857,-2.1428571)" />
    <path
       style="font-size:20.62417411999999928px;font-style:normal;font-variant:normal;font-weight:normal;font-stretch:normal;text-align:start;line-height:139.99999761999998782%;letter-spacing:0px;word-spacing:0px;writing-mode:lr-tb;text-anchor:start;fill:#d40000;fill-opacity:1;stroke:none;font-family:League Script Thin;-inkscape-font-specification:'League Script Thin,'"
       d="m 21.938589,1046.5158 c 0,-0.66 -0.536229,-1.1756 -1.175578,-1.1756 -0.639349,0 -1.154954,0.5156 -1.154954,1.1756 0,0.6393 0.515605,1.155 1.154954,1.155 0.639349,0 1.175578,-0.5157 1.175578,-1.155"
       id="path2999"
       inkscape:connector-curvature="0" />
  </g>
</svg>
